<?xml version="1.0" encoding="utf-8"?>
<!-- Generator: Adobe Illustrator 24.0.0, SVG Export Plug-In . SVG Version: 6.00 Build 0)  -->
<svg version="1.1" id="Layer_1" xmlns="http://www.w3.org/2000/svg" xmlns:xlink="http://www.w3.org/1999/xlink" x="0px" y="0px"
	 viewBox="0 0 250 350" style="enable-background:new 0 0 250 350;" xml:space="preserve">
<style type="text/css">
	.st0{fill:#F9B4B9;}
	.st1{opacity:0.5;}
	.st2{fill:#B1FE26;}
	.st3{fill:#5960A3;}
	.st4{fill:#B2B7DC;}
	.st5{opacity:0.6;}
	.st6{fill:#3B4179;}
	.st7{fill:#F4605A;}
	.st8{opacity:0.8;}
	.st9{fill:#CC4242;}
	.st10{opacity:0.2;}
	.st11{fill:#1791B2;}
	.st12{fill:#11A47B;}
	.st13{fill:#EF5702;}
	.st14{fill:#ABF4E6;}
	.st15{fill:#D14A07;}
	.st16{fill:#9EB280;}
	.st17{fill:#8F9D86;}
	.st18{fill:#122118;}
	.st19{fill:#233F30;}
	.st20{fill:#1C3527;}
	.st21{fill:none;}
	.st22{fill:#E26F3F;}
	.st23{fill:#CE5A36;}
	.st24{fill:#BDC9E2;}
	.st25{fill:#33624B;}
	.st26{fill:#224031;}
	.st27{fill:#448465;}
	.st28{fill:#F4D892;}
	.st29{fill:#EFC764;}
	.st30{fill:#A8E5D9;}
	.st31{fill:#D23748;}
	.st32{fill:#DB616E;}
	.st33{fill:#2AC0A4;}
	.st34{fill:#188BB8;}
	.st35{fill:#B4CDD6;}
	.st36{fill:#155736;}
	.st37{fill:#1E745C;}
	.st38{fill:#DBE8B8;}
	.st39{fill:#A8C686;}
	.st40{fill:#86A065;}
	.st41{fill:none;stroke:#86A065;stroke-miterlimit:10;}
	.st42{opacity:0.3;}
	.st43{fill:#0E4227;}
	.st44{fill:#9D2849;}
	.st45{fill:#741E36;}
</style>
<g>
	<g>
		<g class="st1">
			<g>
				<g>
					<path class="st16" d="M226.64,160c1.97,0.01,3.88,0.66,5.7,1.42c3.59,1.51,7.14,3.72,8.88,7.21c0.45,0.91,0.95,2.04,1.95,2.18
						c0.64-2.81-0.85-7.05-1.57-9.86c-0.93-3.61-2.13-7.17-3.78-10.52c-3.25-6.6-10.29-14.77-18.28-16.15
						c0.41,0.06,0.84,0.14,1.27,0.23c-0.11-0.04-1.18-0.47-2.84-0.79c0.53-2.03-0.45-11.95-0.81-12.95
						c-1.27-3.61-4.74-5.97-7.63-8.2c-3.88-3.01-8.07-5.65-12.59-7.57c-0.72-0.3-1.45-0.6-2.02-1.12c-0.57-0.52-0.97-1.32-0.77-2.07
						c0.63-2.43,6.91-0.29,8.38,0.29c3.56,1.42,6.44,4.04,8.56,7.21c3.91,5.86,5.34,8.34,6.25,7.55c0.76-0.65,0.41-3.61,0.41-4.45
						c0.01-3.18-0.24-6.37-0.68-9.51c-1.31-9.23-4.01-16.93-13.21-20.53c-8.12-3.17-18.79-3.64-24.41,4.13
						c-0.09,0.13-0.19,0.26-0.28,0.4c-0.24,0.57-0.46,1.16-0.77,1.68c-0.03,0.05-0.06,0.11-0.09,0.16c0.04-0.06,0.07-0.13,0.09-0.2
						c0.12-0.34,0.1-0.79-0.02-1.28c-0.14-0.59-0.42-1.25-0.73-1.88c-0.46-0.91-1-1.74-1.34-2.17c-0.91-1.16-1.98-2.22-3.16-3.11
						c-3.6-2.72-8.08-3.54-12.46-2.57c-11.75,2.6-17.61,9.64-20.08,14.72c-2.47,5.08-4.82,11.86-5.08,16.81
						c-0.12,2.39,0.97,7.32,0.55,10.57c-0.13,1-0.4,1.85-0.89,2.41c-0.35-0.37-0.71-0.73-1.07-1.07c-3.32-3.14-7.07-4.97-11.98-4.52
						c-5.03,0.46-9.65,3.06-13.54,6.27c5.71-1.97,12.03-2.16,17.85-0.53c0.9,0.25,1.84,0.57,2.48,1.26c2.06,2.2-0.92,3.65-2.89,3.06
						c-1.06-0.32-1.99-0.95-2.98-1.44c-2.54-1.27-5.42-1.62-8.25-1.88c-2.58-0.24-5.24-0.41-7.7,0.41c-2.9,0.97-5.2,3.2-7.09,5.6
						c-1.89,2.4-3.49,5.04-5.58,7.26c5.06-1.99,10.65-3.54,16.09-3.89c3.33-0.22,8.25-1.99,11.47-0.72
						c1.07,0.42,2.29,1.22,2.58,1.98c0,0-1.37,1.47-1.38,1.47c-2.8,0.76-6.81-0.66-9.68-0.82c-3.85-0.22-7.51,0.63-11.25,1.37
						c-2.4,0.48-6.67,1.18-7.73,3.81c-0.98,2.42-1.9,4.89-2.51,7.43c-0.68,2.82-0.78,4.88,2.18,2.54c4.97-3.92,11.51-5.15,17.8-5.76
						c2.24-0.21,4.92-0.16,6.18,1.7c0.2,0.29,0.35,0.67,0.21,0.99c-0.22,0.51-0.94,0.51-1.49,0.43c-2.95-0.46-6.14-1.38-9.12-1.11
						c-3.23,0.29-6.23,1.58-9.09,3.04c-0.95,0.49-5.6,2.18-5.6,3.65c0,0.88-3.58,9.47-1.65,9.67c0.07,0.01,0.14,0.01,0.21,0.01
						c-0.55,4.55,0.45,12.76,1.34,12.69c2.51-0.2,4.29-2.52,6.13-4.04c0.88-0.73,7.09-3.67,6.01-0.87
						c-0.86,2.24-6.84,4.05-8.83,5.33c-0.56,0.36-1.15,0.77-1.4,1.39c-0.21,0.53-0.14,1.13-0.04,1.7c0.38,2.06,0.9,4.16,1.77,6.08
						c1.09,2.43,3.77,3.57,4.69,6.18c0.23,0.66,0.39,1.42,0.95,1.84c0.85,0.64,2.08,0.15,2.92-0.51c0.84-0.66,1.66-1.51,2.72-1.57
						c0,0.01-0.01,0.02-0.01,0.03c-0.02,0.05-0.04,0.09-0.05,0.14c-0.11,0.27-0.23,0.54-0.33,0.81c-0.02,0.06-0.04,0.12-0.07,0.18
						c-0.25,0.64-0.49,1.26-0.65,1.88c-0.1,0.33-0.21,0.67-0.3,0.99c-1.45,5.41-0.95,10.27-0.07,16.35
						c0.59,4.08,3.98,5.78,6.58,8.48c2.31,2.4,4.76,4.74,7.71,6.35c2.43,1.32,5.16,1.94,7.33,3.76c0,0,1.66-4.3,3.42-5.47
						c1.35-0.9,7.39-6.15,10.19-12.34c2.3,2.74,4.42,5.65,6.34,8.64c5.35,8.37,5.88,17.45,6.84,26.82h-33.62
						c-0.43,0-0.77,0.34-0.77,0.77v8.82c0,0.42,0.34,0.77,0.77,0.77h1.9c0.38,0,0.7,0.27,0.76,0.64c2.25,14.02,4.5,28.05,6.74,42.07
						c0.44,2.76,1.17,5.22,1.96,7.76c-7.77,1.46-16.16,0.99-24.05,1.29c-12.23,0.46-18.28,3.93-18.28,3.93
						c1.03-0.01,57.54,0,57.54,0s23.9,0.74,27.12-3.92c0.22-0.32,0.24-0.63,0.09-0.93c1.04-0.97,1.76-2.27,1.99-3.73l7.45-46.47
						c0.06-0.37,0.38-0.64,0.75-0.64h1.9c0.42,0,0.77-0.34,0.77-0.77v-8.82c0-0.43-0.34-0.77-0.77-0.77h-8.12
						c-0.27-2.93-0.57-6.82-0.77-11.41c2.02-5.93,4.52-9.96,6.63-12.57c-0.3,4.74,4.7,6.23,8.55,6.9
						c5.94,1.04,11.05,0.53,16.35-2.69c3.48-2.11,8.98-5.73,11.39-8.97c2.17-2.92-1.79-2.4-4.02-3.43
						c-3.03-1.39-5.65-3.53-8.26-5.57c-5.53-4.31-11.24-6.84-18.35-6.05c-1.01,0.11-2.03,0.29-3.05,0.54
						c0.1-3.96-0.02-7.95-0.68-11.86c-0.55-3.25-2.74-5.72-4.98-8.03c0.03-0.13,0.06-0.27,0.09-0.4c0.04,0.06,0.07,0.12,0.11,0.18
						c3.59,5.25,9.5,8.72,15.14,11.37c6.85,3.21,12.64,3.58,20.11,4.05c2.67,0.17,5.47,0.5,7.95,1.54c1.85,0.78,2.77,2.03,3.81,3.65
						c1.23,1.91,1.61,2.72,3.06,0.71c2.35-3.26,3.33-7.32,5.97-10.45c6.7-7.95,7.93-24.93-3.83-29.04
						c-3.87-1.35-8.19,0.18-12.2-0.62c-0.3-0.06-0.61-0.14-0.85-0.33c-0.7-0.57-0.37-1.72,0.2-2.42
						C222.61,160.68,224.67,159.98,226.64,160z M103.91,157.34c-1.71,0.24-3.9,0.31-6.01,0.57c0.92-0.88,1.8-1.66,2.59-2.07
						c3.61-1.84,7.87-2.45,11.82-1.47c0.23,0.05,0.48,0.13,0.59,0.34c0.48,0.85-1.93,1.46-2.4,1.57
						C108.35,156.79,106.11,157.03,103.91,157.34z M116.8,210.83c-1.06,0.92-4.34,4.13-5.74,2.29c-1.1-1.45,2.37-4.69,3.26-5.74
						c1.11-1.3,4.3-3.32,4.56-1.5C119.18,207.94,118.33,209.51,116.8,210.83z M123.88,184.94c-0.26,0.57-0.54,1.12-0.83,1.65
						c-1.06-0.39-2.02-0.47-2.6-0.47c-0.16-4.04-0.4-9.63-0.48-10.69c-0.13-1.69,0.78-4.95,2.09-2.6
						C123.36,175.17,125.19,182.07,123.88,184.94z M165.75,128.34c-0.53,0.45-1.09,0.91-1.63,1.34c-1.95,1.58-3.74,2.95-3.74,2.95
						l-2.93-2.15c0.19,0,2.5-1.34,4.98-2.72c2.69-1.49,5.56-3.01,6.07-2.85C169.47,125.21,168.2,126.29,165.75,128.34z
						 M174.63,243.52c-0.32,1.27-0.59,2.48-0.83,3.59h-2.69c1.21-3.76,2.01-9.87,1.09-19.72c-0.59-6.38-1.1-12.59-1.52-18.24
						c0.08,0.04,0.15,0.09,0.23,0.13c1.15,0.63,2.47,1.38,3.84,2.05C174.13,220.67,174.02,231.35,174.63,243.52z M167.7,237.55
						c-3.13,12.9-2.54,3.91-2.34,2.34c0.09-0.71,0.34-16.6,0.58-33.79c0.89,0.65,1.81,1.28,2.74,1.87
						C169.13,219.3,169.16,231.53,167.7,237.55z M147.68,97.86c1.37-2.25,6.55-6.06,10.16-4.98c3.61,1.07-7.03,6.84-9.38,7.23
						C148.46,100.11,146.31,100.11,147.68,97.86z M139.86,125.7c0.15-1.14,1.13-2.52,1.66-3.49c1.16-2.13,2.51-4.12,4.03-5.96
						c3.78-4.59,8.6-8.27,14.01-10.97c0.9-0.45,9.93-4.87,8.83-1.46c-0.6,1.87-3.61,2.87-5.13,3.78c-4.39,2.61-8.59,5.62-12.28,9.15
						c-0.27,0.25-0.53,0.5-0.79,0.75c-1.73,1.65-3.36,3.18-5.33,4.63c-1.92,1.41-4.46,3.13-5,5.62
						C139.18,130.88,139.86,125.7,139.86,125.7z M157.33,164.78c-4.31-4.16-9.23-8.65-10.49-14.78c-0.09-0.43,0.02-0.68,0.27-0.79
						c0.06-0.03,0.13-0.05,0.21-0.06c0.03,0,0.06,0,0.09-0.01c0.05,0,0.1-0.01,0.15-0.01c0.04,0,0.08,0.01,0.13,0.01
						c0.05,0,0.1,0.01,0.15,0.02c0.05,0.01,0.1,0.02,0.15,0.03c0.05,0.01,0.1,0.02,0.15,0.03c0.06,0.01,0.11,0.03,0.17,0.04
						c0.05,0.01,0.1,0.03,0.15,0.04c0.06,0.02,0.12,0.04,0.18,0.06c0.04,0.01,0.09,0.03,0.13,0.05c0.07,0.03,0.14,0.05,0.21,0.08
						c0.02,0.01,0.03,0.01,0.05,0.02c0.21,0.08,0.42,0.17,0.62,0.27c1.18,1.16,2.46,2.29,3.86,3.39c0.02,0.03,0.05,0.07,0.07,0.1
						c0.18,0.25,0.35,0.51,0.51,0.78c0.06,0.09,0.11,0.19,0.17,0.28c0.13,0.23,0.26,0.46,0.38,0.69c0.06,0.11,0.12,0.22,0.17,0.33
						c0.12,0.24,0.23,0.48,0.34,0.72c0.04,0.1,0.09,0.2,0.13,0.29c0.15,0.34,0.29,0.69,0.42,1.03c0.3,0.82,0.56,1.65,0.77,2.5
						c0.13,0.5,0.23,1,0.32,1.5C156.94,162.13,156.78,164.25,157.33,164.78z M127.66,191.58c0,0,3.13-0.13,3.39-2.74
						c0.39-3.92-0.39-8.24-0.91-12.11c-0.32-2.31-0.66-4.66-1.3-6.92c-0.6-2.12-2.8-4.31-1.42-6.49c0.17-0.27,0.39-0.52,0.68-0.65
						c0.73-0.31,1.54,0.26,1.99,0.91c0.69,0.99,0.98,2.2,1.23,3.38c0.88,4.03,1.57,8.09,2.08,12.18c0.37,3.01,1.28,8.18-1.31,10.48
						C128.57,192.76,127.66,191.58,127.66,191.58z M134.46,212.09c-1.52-0.74-2.81-1.65-3.72-3.12c-0.92-1.49,0.93-1.33,1.75-1
						c2.31,0.91,5.01,5.09,5.36,5.65C137.36,213,135.15,212.42,134.46,212.09z M142.67,208.97c0.28-1.04,0.45-2.1,0.46-3.15
						c0.08-6.58-0.21-11.84-1.6-14.84c-0.39-0.84-0.86-1.5-1.43-1.96c0,0,0.07-0.01,0.19-0.04c0,0,0,0,0,0
						c0.6-0.12,2.4-0.64,2.64-2.51c0.29-2.25-1.27-16.8-6.25-22.96c-0.61-0.75-4.53-5.51-1.92-6.14c3.06-0.74,5.09,6.28,5.86,8.24
						c2.19,5.58,3.75,10.85,2.88,16.94c-0.15,1.07-0.18,2.48,0.84,2.85c0.13,0.05,0.27,0.06,0.41,0.06c1.54,5,8.44,26.2,9.85,42.52
						C154.6,227.97,147.43,215.78,142.67,208.97z M148.39,185.82c-0.28-0.69-0.57-1.38-0.87-2.06c1.77-1.58,3.24-3.41,4.62-5.36
						c1.36-1.92,3.55-4.56,4.04-6.97c-0.16,1.02-0.28,2.58,0.33,2.53c0.6-0.05,2.29-2.81,3.83-5.78c1.45-2.79,2.76-5.76,2.92-6.81
						c0,0.19,0.64,0.79,1.5,1.51c-0.07,1.75-0.36,9.55-0.76,19.73c-0.92-0.35-1.84-0.74-2.65-0.76c-1.07-0.03-2.11,0.44-2.95,1.1
						c-2.05,1.59-3.72,4.07-4.11,6.65c-0.85,5.51,5.04,11,8.88,14.3c-0.78,19.52-1.62,39.21-1.9,42.24c0.08-0.82-1.45-2.7-1.82-3.51
						c-1.82-4.02-1.74-8.3-2.15-12.6c-0.42-4.45-0.97-8.89-1.62-13.31C154.13,206.32,152.29,195.63,148.39,185.82z M170.74,177.93
						c-1.6,0.76-1.6,2.57-2.23,3.86c-0.21,0.43-0.5,0.81-0.94,1.07c-0.42,0.24-0.86,0.33-1.32,0.32c0.12-8.6,0.21-15.66,0.25-18.84
						c0.86,0.7,1.67,1.37,2.14,1.8c0.16,0.15,0.29,0.27,0.36,0.36c0.91,1.12,1.43,2.27,2.02,3.56c0.78,1.72,0.65,2.31,2.4,0.68
						c1.39-1.3,3.31-3.21,3.5-3.4c0.01-0.01,0.02-0.02,0.02-0.02c0.22,1.52,0.48,3.14,0.8,4.77c0.14,0.72,0.29,1.45,0.47,2.18
						c0.39,1.64,0.86,3.27,1.45,4.82c-0.19,0.71-0.37,1.44-0.55,2.18C176.71,179.08,173.39,176.68,170.74,177.93z M183.84,222.53
						c-2.29,2.55-4.18,6.13-5.72,9.96c-0.14-4.17-0.19-8.81-0.08-13.74C179.62,220.96,182.35,222.07,183.84,222.53z M184.62,146.81
						c0,0-2.64-7.23-1.86-9.09c0.78-1.86,1.86,0.29,2.93,2.83c1.07,2.54,1.86,5.76,1.86,5.76S185.11,146.12,184.62,146.81z
						 M197.73,169.09c-0.23,0.75-0.49,1.45-0.74,2.07c-1.07,2.58-2.61,4.76-4.39,6.89c-1.41,1.67-3.2,4.11-5.44,4.72
						c-3.22,0.88-1.07-4.49,1.76-11.33c1.32-3.19,3.15-6.16,5.69-8.52c1.15-1.07,3.05-1.15,3.56,0.56
						C198.64,165.1,198.29,167.22,197.73,169.09z M194.78,123.16c-8.3-2.93-2.64-6.06,0-4.01c2.64,2.05,10.06,7.43,11.53,15.44
						l-1.37,0.88C204.94,135.47,203.08,126.09,194.78,123.16z M211.73,182.5c-0.15,0.68-0.46,2.13-0.93,3.71
						c-0.54,1.79-1.29,4.47-2.99,5.53c-1.27,0.79-2.32,0.18-2.39-1.15c-0.1-1.73,0.1-3.54,0.26-5.26c0.24-2.63,0.38-5.9,2.19-8.02
						c0.84-0.98,4.28-4.43,4.69-1.7C212.87,177.72,212.18,180.44,211.73,182.5z M231.12,177.87c1.17-1.17,3.13,0.78,3.71,1.66
						c0.93,1.39,2.03,2.66,2.78,4.15c0.34,0.68,1.54,4.83-0.48,4.18c-0.44-0.14-0.73-0.55-1.03-0.91c-0.88-1.08-2.01-1.92-3.13-2.76
						c-1.3-0.97-1.95-1.35-2.22-2.95C230.58,180.25,230.31,178.68,231.12,177.87z"/>
				</g>
			</g>
		</g>
		<g>
			<g>
				<g>
					<g>
						<path class="st17" d="M116.47,57.88c0-0.49-0.01-0.97-0.02-1.46C116.58,56.99,116.61,57.49,116.47,57.88z"/>
					</g>
				</g>
			</g>
			<g>
				<g>
					<g>
						<g>
							<path class="st18" d="M104.83,244.51c2.66-29.98,16.34-38.02,16.34-38.02c-12.23,3.13-17.62,31.22-18.75,38.02H104.83z"/>
						</g>
					</g>
				</g>
				<g>
					<g>
						<g>
							<path class="st18" d="M110.14,244.51c-1.03-8.31-8.13-72.95,15.25-112.12l-1.13-1.72c0,0-25.73,25.07-19.13,113.84H110.14z"
								/>
						</g>
					</g>
				</g>
				<g>
					<g>
						<g>
							<path class="st18" d="M82.71,244.51h14.37c2.17-1.92,6.53-8.35,4.66-28.41c-2.45-26.27-3.57-50.09-3.57-50.09l-2.22-0.22
								c0,0,4.23,47.2,0.67,61.89c-3.56,14.69-2.89,4.45-2.67,2.67c0.15-1.17,0.68-38.89,1.02-64.61
								c0.18-13.41,0.31-23.56,0.31-23.56h-2c0,0-0.37,9.69-0.88,22.91c-1.04,26.65-2.68,67.62-3.13,72.38
								c0.09-0.94-1.65-3.07-2.07-4c-2.07-4.58-1.99-9.46-2.45-14.35c-0.48-5.07-1.11-10.13-1.85-15.17
								c-1.74-11.85-3.84-24.03-8.28-35.21c-0.55-1.39-1.15-2.77-1.82-4.11c0,0-2.89,1.15-2.67,2.49
								c0.22,1.34,9.78,28.94,11.57,49.65c0,0-11.13-18.92-16.02-24.94l-1.11,3.56c3.58,3.88,6.81,8.18,9.65,12.62
								C81.43,219.31,80.94,231.74,82.71,244.51z"/>
						</g>
					</g>
				</g>
				<g>
					<g>
						<g>
							<path class="st19" d="M163.78,139.31c2.25,0.01,4.43,0.75,6.5,1.62c4.09,1.72,8.14,4.23,10.12,8.21
								c0.52,1.04,1.08,2.32,2.23,2.48c0.73-3.2-0.97-8.04-1.79-11.24c-1.06-4.12-2.43-8.17-4.31-11.99
								c-3.7-7.52-11.72-16.83-20.83-18.4c-0.69-0.12-1.38-0.2-2.07-0.22c0.12,0,0.21-0.15,0.28-0.41
								c0.61-2.31-0.51-13.61-0.92-14.76c-1.45-4.11-5.41-6.8-8.69-9.35c-4.42-3.42-9.19-6.43-14.35-8.63
								c-0.81-0.34-1.65-0.68-2.31-1.27c-0.65-0.59-1.1-1.5-0.88-2.36c0.72-2.77,7.87-0.33,9.55,0.33c4.06,1.62,7.34,4.6,9.75,8.21
								c4.45,6.68,6.09,9.5,7.12,8.61c0.86-0.74,0.47-4.11,0.47-5.07c0.01-3.62-0.27-7.25-0.78-10.84
								c-1.49-10.51-4.57-19.29-15.05-23.39c-9.25-3.62-21.41-4.15-27.81,4.71c-0.11,0.15-0.21,0.3-0.32,0.45
								c-0.27,0.65-0.53,1.33-0.87,1.92c-0.04,0.06-0.07,0.12-0.11,0.18c0.04-0.07,0.08-0.15,0.11-0.23
								c0.14-0.39,0.11-0.9-0.02-1.46c0,0,0,0,0,0c-0.16-0.68-0.48-1.43-0.84-2.15c-0.52-1.03-1.14-1.98-1.52-2.48
								c-1.04-1.33-2.25-2.53-3.6-3.55c-4.1-3.1-9.2-4.03-14.2-2.93c-13.39,2.97-20.06,10.98-22.88,16.77s-5.49,13.51-5.79,19.15
								c-0.14,2.73,1.1,8.34,0.63,12.04c-0.15,1.14-0.45,2.11-1.02,2.75c-0.4-0.42-0.81-0.83-1.22-1.22
								c-3.78-3.58-8.05-5.66-13.65-5.15c-5.73,0.53-10.99,3.48-15.43,7.14c6.51-2.24,13.71-2.46,20.34-0.6
								c1.03,0.29,2.09,0.65,2.82,1.43c2.34,2.5-1.05,4.16-3.3,3.49c-1.21-0.37-2.27-1.08-3.4-1.64c-2.89-1.44-6.18-1.85-9.4-2.15
								c-2.94-0.27-5.98-0.46-8.78,0.47c-3.3,1.1-5.92,3.65-8.08,6.39c-2.15,2.73-3.97,5.74-6.36,8.27
								c5.76-2.26,12.13-4.03,18.33-4.43c3.79-0.25,9.4-2.27,13.06-0.82c2.13,0.84,4.81,3,1.38,3.94
								c-3.19,0.87-7.76-0.75-11.03-0.93c-4.38-0.24-8.56,0.72-12.82,1.56c-2.74,0.54-7.6,1.34-8.8,4.35
								c-1.11,2.76-2.16,5.57-2.85,8.46c-0.77,3.21-0.89,5.56,2.49,2.9c5.66-4.46,13.11-5.87,20.29-6.56
								c2.55-0.24,5.61-0.19,7.04,1.94c0.23,0.33,0.4,0.76,0.24,1.13c-0.25,0.58-1.07,0.58-1.7,0.49c-3.36-0.52-7-1.57-10.39-1.26
								c-3.68,0.33-7.1,1.79-10.36,3.47c-1.09,0.56-6.39,2.49-6.39,4.16c0,1-4.08,10.79-1.88,11.02c0.08,0.01,0.16,0.01,0.24,0.01
								c-0.63,5.19,0.51,14.54,1.53,14.46c2.86-0.23,4.89-2.87,6.99-4.61c1-0.83,8.07-4.18,6.85-0.99
								c-0.98,2.56-7.79,4.61-10.06,6.07c-0.64,0.41-1.31,0.88-1.6,1.59c-0.24,0.61-0.16,1.29-0.04,1.94
								c0.43,2.35,1.03,4.74,2.01,6.93c1.24,2.77,4.29,4.07,5.35,7.04c0.27,0.75,0.45,1.62,1.08,2.1c0.97,0.73,2.37,0.17,3.33-0.58
								c0.96-0.75,1.89-1.72,3.1-1.79c-0.16,0.37-0.31,0.74-0.45,1.1c-0.47,1.19-0.85,2.35-1.15,3.49
								c-1.65,6.16-1.08,11.7-0.08,18.63c0.68,4.65,4.54,6.59,7.5,9.67c2.63,2.74,5.43,5.4,8.79,7.24c2.77,1.51,5.88,2.21,8.35,4.28
								c0,0,1.89-4.9,3.9-6.23s13.14-11.13,13.25-20.71c0.09-7.49-0.24-13.49-1.82-16.91c-0.44-0.95-0.98-1.71-1.63-2.24
								c0,0,0.08-0.01,0.22-0.04c0,0,0,0,0,0c0.68-0.14,2.73-0.73,3.01-2.85c0.33-2.56-1.45-19.15-7.12-26.16
								c-0.69-0.86-5.17-6.27-2.19-7c3.49-0.84,5.8,7.16,6.67,9.39c2.49,6.36,4.27,12.36,3.28,19.3c-0.17,1.22-0.2,2.83,0.96,3.25
								c0.77,0.28,1.59-0.21,2.24-0.71c2.66-2.03,4.72-4.54,6.65-7.25c1.55-2.19,4.05-5.2,4.6-7.94c-0.18,1.17-0.32,2.94,0.38,2.88
								c0.69-0.06,2.61-3.21,4.36-6.59c1.65-3.17,3.14-6.56,3.32-7.76c0,0.54,4.62,4.03,6.14,5.43c0.19,0.17,0.33,0.31,0.41,0.41
								c1.03,1.27,1.63,2.59,2.3,4.06c0.89,1.95,0.74,2.63,2.73,0.77c1.59-1.48,3.77-3.66,3.99-3.88c0.01-0.01,0.02-0.02,0.02-0.02
								c0.25,1.74,0.54,3.58,0.91,5.44c0.16,0.82,0.33,1.66,0.53,2.48c0.92,3.89,2.25,7.73,4.34,10.8
								c4.09,5.98,10.82,9.93,17.25,12.95c7.81,3.66,14.4,4.07,22.92,4.62c3.05,0.2,6.23,0.57,9.06,1.75
								c2.11,0.89,3.15,2.31,4.35,4.15c1.41,2.17,1.83,3.09,3.48,0.81c2.68-3.71,3.8-8.34,6.8-11.91c7.63-9.06,9.03-28.4-4.36-33.08
								c-4.41-1.54-9.33,0.2-13.91-0.7c-0.35-0.07-0.7-0.16-0.97-0.38c-0.79-0.65-0.42-1.95,0.22-2.75
								C159.19,140.1,161.53,139.3,163.78,139.31z M23.94,136.29c-1.95,0.28-4.44,0.35-6.84,0.65c1.05-1.01,2.05-1.9,2.95-2.36
								c4.11-2.1,8.97-2.79,13.47-1.67c0.26,0.06,0.55,0.15,0.68,0.39c0.55,0.97-2.2,1.66-2.73,1.79
								C29,135.66,26.45,135.94,23.94,136.29z M38.63,197.24c-1.21,1.05-4.95,4.7-6.54,2.6c-1.26-1.65,2.7-5.34,3.72-6.54
								c1.26-1.48,4.9-3.78,5.19-1.71C41.34,193.94,40.37,195.73,38.63,197.24z M46.7,167.74c-0.29,0.65-0.61,1.28-0.94,1.88
								c-1.21-0.45-2.3-0.53-2.96-0.53c-0.19-4.61-0.45-10.98-0.55-12.18c-0.15-1.93,0.89-5.64,2.38-2.97
								C46.11,156.6,48.18,164.47,46.7,167.74z M51,175.31c0,0,3.56-0.15,3.86-3.12c0.44-4.47-0.44-9.39-1.04-13.8
								c-0.36-2.64-0.75-5.31-1.48-7.88c-0.69-2.42-3.19-4.91-1.62-7.4c0.19-0.31,0.45-0.59,0.78-0.74c0.83-0.36,1.75,0.3,2.27,1.04
								c0.78,1.13,1.11,2.51,1.4,3.85c1,4.59,1.79,9.22,2.36,13.88c0.42,3.43,1.46,9.32-1.49,11.94
								C52.04,176.64,51,175.31,51,175.31z M62.62,200.41c-0.57-0.71-3.09-1.36-3.87-1.74c-1.73-0.85-3.2-1.88-4.23-3.56
								c-1.05-1.69,1.06-1.51,2-1.14C59.14,195.01,62.22,199.77,62.62,200.41z M73.81,68.51c1.56-2.56,7.46-6.9,11.58-5.68
								c4.12,1.22-8.01,7.79-10.69,8.24C74.7,71.07,72.25,71.07,73.81,68.51z M64.9,102.58c-0.78,3.56,0-2.34,0-2.34
								c0.17-1.3,1.28-2.87,1.89-3.98c1.32-2.43,2.86-4.69,4.6-6.79c4.31-5.23,9.8-9.42,15.96-12.5c1.03-0.51,11.31-5.55,10.06-1.67
								c-0.69,2.13-4.11,3.27-5.84,4.3c-5,2.98-9.78,6.4-14,10.42c-0.3,0.29-0.6,0.57-0.9,0.86c-1.97,1.88-3.83,3.63-6.08,5.28
								C68.41,97.78,65.52,99.74,64.9,102.58z M72.85,127.93c-0.1-0.49,0.03-0.77,0.3-0.9c1.03-0.48,4.13,1.2,4.7,1.66
								c2.41,1.97,4.03,4.78,5.11,7.66c0.35,0.93,0.64,1.88,0.88,2.85c0.14,0.57,0.27,1.14,0.37,1.71c0.15,0.83-0.04,3.25,0.59,3.86
								C79.89,140.03,74.29,134.91,72.85,127.93z M90.61,102.6c3.06-1.7,6.33-3.42,6.91-3.25c1.11,0.33-0.34,1.56-3.12,3.9
								c-0.61,0.51-1.24,1.03-1.86,1.53c-2.22,1.8-4.26,3.37-4.26,3.37l-3.34-2.45C85.16,105.7,87.8,104.16,90.61,102.6z
								 M115.9,124.29c0,0-3.01-8.24-2.12-10.35c0.89-2.12,2.12,0.33,3.34,3.23c1.22,2.89,2.12,6.57,2.12,6.57
								S116.45,123.51,115.9,124.29z M130.83,149.67c-0.26,0.85-0.56,1.66-0.85,2.36c-1.22,2.93-2.97,5.43-5,7.85
								c-1.6,1.91-3.65,4.68-6.2,5.38c-3.67,1-1.22-5.12,2-12.91c1.5-3.63,3.58-7.02,6.48-9.71c1.31-1.22,3.48-1.31,4.05,0.64
								C131.87,145.13,131.47,147.55,130.83,149.67z M127.47,97.35c-9.46-3.34-3.01-6.9,0-4.56c3.01,2.34,11.47,8.46,13.14,17.59
								l-1.56,1C139.05,111.37,136.94,100.69,127.47,97.35z M146.79,164.96c-0.17,0.77-0.52,2.43-1.06,4.23
								c-0.61,2.04-1.46,5.09-3.41,6.3c-1.45,0.9-2.64,0.2-2.73-1.31c-0.11-1.97,0.11-4.03,0.29-6c0.27-3,0.43-6.73,2.49-9.14
								c0.96-1.12,4.88-5.05,5.35-1.94C148.09,159.51,147.3,162.61,146.79,164.96z M168.88,159.69c1.34-1.34,3.56,0.89,4.23,1.89
								c1.06,1.58,2.32,3.03,3.17,4.73c0.39,0.77,1.75,5.51-0.54,4.76c-0.5-0.16-0.84-0.62-1.18-1.03
								c-1.01-1.23-2.29-2.19-3.56-3.14c-1.48-1.1-2.23-1.54-2.53-3.36C168.27,162.4,167.96,160.61,168.88,159.69z"/>
						</g>
					</g>
				</g>
				<g class="st5">
					<g>
						<g>
							<path class="st18" d="M97.89,146.05c-0.06,0.09-0.12,0.18-0.19,0.27c-1.52-1.39-6.14-4.89-6.14-5.43
								c-0.18,1.2-1.67,4.59-3.32,7.76c-0.65-2.84-2.19-6.09-4.39-9.44c-0.24-0.97-0.53-1.92-0.88-2.85
								c-0.63-1.68-1.44-3.33-2.49-4.8c1.29,1.02,2.66,2.01,4.12,2.98C90.6,138.5,94.88,142.39,97.89,146.05z"/>
						</g>
					</g>
				</g>
				<g>
					<g>
						<g>
							<path class="st20" d="M80.48,131.55c-1.59-1.26-3.06-2.55-4.41-3.87c0.82,0.38,1.54,0.81,1.79,1.01
								C78.86,129.51,79.73,130.48,80.48,131.55z"/>
						</g>
					</g>
				</g>
				<g>
					<g>
						<g>
							<path class="st17" d="M147.4,98.68c-2.16-3.07-5.06-5.5-8.13-7.6c-3.08-2.1-6.4-3.82-9.78-5.37
								c-3.39-1.53-6.88-2.88-10.42-3.93c-1.82-0.49-3.62-1.22-5.29-2.12c-0.84-0.45-1.65-0.95-2.44-1.48
								c-0.51-0.35-1.01-0.7-1.5-1.09c0,0.15,0,0.3,0,0.45c-0.11,4.64-0.25,9.27-0.43,13.9c2,1.64,4.02,3.27,6.06,4.86
								c2.09,1.62,4.19,3.23,6.38,4.71c0.27,0.18,0.55,0.37,0.82,0.53l0.85,0.51c0.58,0.35,1.14,0.73,1.67,1.16
								c1.05,0.84,2,1.78,2.89,2.77c0.89,0.99,1.72,2.03,2.49,3.12c0.76,1.09,1.48,2.21,2.02,3.43c-0.58-1.2-1.34-2.28-2.15-3.34
								c-0.81-1.05-1.67-2.05-2.59-3c-0.93-0.94-1.9-1.83-2.96-2.61c-0.52-0.39-1.08-0.74-1.64-1.05l-0.88-0.49
								c-0.29-0.16-0.57-0.34-0.86-0.51c-2.27-1.41-4.44-2.94-6.6-4.48c-2.06-1.48-3.59-2.6-5.57-4.09
								c-0.13,3.18-0.28,6.36-0.46,9.53c-0.48,8.31-1.12,16.62-2.13,24.89c-0.5,4.13-1.1,8.26-1.89,12.34
								c-0.8,4.08-1.74,8.16-3.2,12.06c1.41-3.92,2.3-8,3.05-12.08c0.74-4.09,1.28-8.22,1.73-12.35c0.9-8.27,1.43-16.57,1.81-24.88
								c0.04-0.75,0.06-1.5,0.09-2.26c-3.76,4.58-7.49,9.19-11.19,13.83c-1.96,2.45-3.91,4.92-5.82,7.4
								c-0.96,1.24-1.91,2.49-2.84,3.75c-0.47,0.63-0.94,1.26-1.38,1.91c-0.22,0.32-0.46,0.64-0.67,0.97l-0.63,0.99l0.6-1.02
								c0.2-0.34,0.43-0.66,0.64-0.99c0.42-0.66,0.87-1.31,1.32-1.95c0.89-1.3,1.8-2.58,2.72-3.85c1.83-2.55,3.7-5.08,5.57-7.6
								c3.73-5,7.96-10.15,11.76-15.1c0.27-7,0.42-14.01,0.49-21.02c0-0.44,0-0.89,0.01-1.33c-3.03,2.28-6.07,4.54-9.17,6.74
								c-0.85,0.61-1.72,1.21-2.59,1.79c-0.87,0.59-1.75,1.17-2.68,1.69c-1.85,1.02-3.7,1.97-5.53,2.98
								c-3.66,2.01-7.26,4.15-10.62,6.63c-1.68,1.24-3.29,2.58-4.77,4.05c-1.47,1.48-2.81,3.1-3.81,4.95
								c0.94-1.87,2.25-3.54,3.7-5.06c1.45-1.51,3.04-2.9,4.69-4.19c3.31-2.58,6.88-4.82,10.5-6.93c1.81-1.06,3.66-2.06,5.45-3.11
								c0.88-0.53,1.73-1.12,2.58-1.72c0.85-0.6,1.69-1.22,2.53-1.85c3.28-2.46,6.52-4.99,9.73-7.55
								c0.04-5.56,0.02-11.12-0.06-16.68c0.34-0.59,0.6-1.26,0.87-1.92c0.1-0.16,0.21-0.3,0.32-0.45c0,1.73,0.01,3.46,0,5.19
								c0.02,0.02,0.04,0.04,0.06,0.06c0.05,0.05,0.12,0.1,0.18,0.15c0.13,0.09,0.27,0.19,0.43,0.28c0.3,0.17,0.64,0.32,0.98,0.44
								c0.69,0.24,1.43,0.41,2.19,0.51c1.51,0.21,3.07,0.2,4.62,0.09c0.77-0.04,1.55-0.15,2.33-0.22c0.79-0.1,1.59-0.16,2.39-0.21
								c1.59-0.08,3.18-0.07,4.77,0.01c3.17,0.18,6.32,0.63,9.39,1.43c1.53,0.41,3.04,0.9,4.48,1.58c0.72,0.34,1.42,0.72,2.06,1.18
								c0.64,0.46,1.24,1.01,1.64,1.69c-0.43-0.67-1.04-1.18-1.69-1.62c-0.65-0.44-1.36-0.79-2.08-1.1
								c-1.45-0.61-2.96-1.06-4.49-1.41c-3.06-0.69-6.2-1.04-9.34-1.11c-1.57-0.03-3.13,0.01-4.69,0.15
								c-0.77,0.07-1.55,0.16-2.32,0.28c-0.78,0.1-1.57,0.24-2.37,0.31c-1.59,0.16-3.21,0.23-4.83,0.06
								c-0.81-0.08-1.63-0.24-2.43-0.49c-0.4-0.13-0.8-0.28-1.19-0.49c-0.03-0.02-0.05-0.03-0.08-0.05
								c-0.02,4.43-0.07,8.85-0.16,13.27l0.02-0.03c1.32,1.19,2.85,2.28,4.43,3.19c1.59,0.92,3.25,1.65,5.03,2.18
								c3.59,1.18,7.05,2.63,10.42,4.27c3.36,1.65,6.65,3.48,9.69,5.68C142.49,93.01,145.33,95.55,147.4,98.68z"/>
						</g>
					</g>
				</g>
				<g class="st8">
					<g>
						<g>
							<path class="st18" d="M49.06,109.6l-0.67,0.69l-1.63,1.7l-1.6,1.69c-0.18-0.38-0.35-0.76-0.51-1.14l1.25-1.36l1.61-1.73
								l0.8-0.86l0.26-0.29C48.72,108.73,48.88,109.16,49.06,109.6z"/>
						</g>
					</g>
				</g>
				<g>
					<g>
						<g>
							<path class="st17" d="M64.02,109.6l-0.67,0.69l-1.63,1.7l-1.6,1.69l-1.64,1.73c-2.15,2.28-4.28,4.6-6.38,6.93
								c-4.2,4.67-8.29,9.44-12.2,14.35c-3.9,4.92-7.65,9.97-10.94,15.32c-1.64,2.67-3.16,5.42-4.4,8.31
								c-0.61,1.44-1.15,2.92-1.55,4.44c-0.4,1.52-0.62,3.09-0.56,4.66c-0.09-1.57,0.11-3.15,0.48-4.68
								c0.37-1.53,0.89-3.02,1.48-4.48c1.19-2.92,2.67-5.7,4.27-8.42c3.21-5.42,6.88-10.54,10.71-15.54
								c3.84-4.99,7.86-9.83,11.99-14.58c2.07-2.38,4.16-4.73,6.28-7.06l1.94-2.12l1.25-1.36l1.61-1.73l0.8-0.86l0.26-0.29
								C63.68,108.73,63.84,109.16,64.02,109.6z"/>
						</g>
					</g>
				</g>
				<g>
					<g>
						<g>
							<path class="st17" d="M50.59,217.17c-1.7-3.26-3.15-6.65-4.27-10.16c-0.59-1.75-1.03-3.54-1.44-5.33
								c-0.36-1.81-0.68-3.63-0.85-5.48c-0.17-1.84-0.24-3.69-0.2-5.55c0.05-1.85,0.23-3.7,0.53-5.54c0.3-1.83,0.74-3.65,1.33-5.42
								c0.15-0.47,0.32-0.94,0.49-1.4c0.16-0.41,0.33-0.81,0.5-1.22c0.16-0.37,0.33-0.73,0.5-1.09c0.49-0.03,0.97-0.06,1.44-0.1
								c-0.31,0.53-0.6,1.11-0.86,1.67c-0.11,0.23-0.21,0.46-0.31,0.69c-0.26,0.59-0.5,1.2-0.72,1.81c-0.62,1.7-1.1,3.45-1.44,5.23
								c-0.35,1.78-0.57,3.59-0.68,5.41c-0.1,1.82-0.08,3.64,0.04,5.46c0.12,1.82,0.37,3.63,0.68,5.43
								c0.36,1.79,0.74,3.58,1.27,5.34C47.64,210.44,48.99,213.87,50.59,217.17z"/>
						</g>
					</g>
				</g>
				<g>
					<g>
						<g>
							<path class="st17" d="M163.92,149.46c-1.88-0.09-3.77,0.02-5.63,0.27c-0.93,0.13-1.86,0.29-2.78,0.49
								c-0.46,0.1-0.92,0.2-1.38,0.31l-0.68,0.17l-0.97,0.16c-0.83-0.83-1.67-1.65-2.53-2.46c-0.62-0.6-1.28-1.18-1.87-1.78
								c-0.6-0.61-1.17-1.25-1.71-1.9c-2.19-2.64-4.13-5.5-6-8.4c-1.3-2.02-2.55-4.07-3.78-6.13c2.78-1.21,5.73-2.17,8.7-2.94
								c3.24-0.82,6.56-1.41,9.9-1.66c1.67-0.13,3.35-0.19,5.03-0.13c0.84,0,1.68,0.08,2.52,0.12c0.83,0.09,1.67,0.15,2.5,0.29
								c3.33,0.45,6.6,1.37,9.71,2.69c-3.06-1.42-6.32-2.44-9.66-3c-0.83-0.16-1.67-0.25-2.52-0.37c-0.84-0.08-1.68-0.17-2.53-0.21
								c-1.69-0.1-3.39-0.1-5.09-0.02c-3.39,0.15-6.76,0.64-10.09,1.37c-3.09,0.7-6.13,1.59-9.11,2.78
								c-0.69-1.17-1.37-2.35-2.03-3.54c-1.04-1.83-2.06-3.67-3.06-5.52c-0.42,0.2-0.83,0.29-1.24,0.32
								c0.84,1.51,1.7,3.02,2.56,4.52c0.39,0.67,0.78,1.34,1.18,2.02c-0.06,0.04-0.12,0.08-0.17,0.12
								c-0.28,0.22-0.56,0.44-0.83,0.67c-0.55,0.45-1.08,0.9-1.61,1.37c-1.06,0.92-2.09,1.87-3.1,2.85
								c-2.02,1.95-3.96,3.99-5.75,6.15c-0.9,1.08-1.76,2.19-2.56,3.34c-0.81,1.15-1.57,2.33-2.24,3.57
								c-0.67,1.23-1.26,2.52-1.69,3.85c-0.43,1.33-0.71,2.73-0.68,4.12c0.03-1.4,0.36-2.77,0.83-4.07c0.48-1.3,1.1-2.55,1.81-3.74
								c0.7-1.2,1.5-2.34,2.34-3.45c0.84-1.1,1.73-2.17,2.66-3.2c1.85-2.07,3.85-4.01,5.92-5.87c1.03-0.92,2.09-1.83,3.17-2.7
								c0.54-0.43,1.08-0.86,1.63-1.28c0.27-0.21,0.55-0.41,0.83-0.61c0.02-0.01,0.04-0.03,0.06-0.04c1.79,3,3.63,5.96,5.56,8.88
								c0.03,0.04,0.06,0.09,0.09,0.13c-0.93,3.51-2.04,7.5-3.05,10.94c-0.53,1.78-1.06,3.56-1.65,5.32c-0.3,0.88-0.6,1.75-0.94,2.6
								l-0.53,1.29c-0.17,0.44-0.33,0.89-0.49,1.33c-1.18,3.57-1.88,7.27-2.07,11.01c-0.1,1.87-0.03,3.74,0.26,5.59
								c0.29,1.84,0.81,3.66,1.68,5.31c-0.82-1.67-1.29-3.5-1.53-5.33c-0.24-1.84-0.26-3.7-0.11-5.55c0.29-3.69,1.1-7.35,2.35-10.82
								c0.16-0.43,0.33-0.86,0.51-1.28l0.57-1.27c0.38-0.86,0.71-1.74,1.03-2.62c0.64-1.76,1.23-3.53,1.81-5.3
								c1.06-3.29,2.07-6.58,3.04-9.89c1.63,2.39,3.31,4.73,5.2,6.94c0.57,0.66,1.16,1.31,1.79,1.93c0.64,0.62,1.28,1.18,1.92,1.77
								c1.28,1.16,2.54,2.33,3.73,3.57c1.13,1.17,2.2,2.39,3.19,3.67c-1.63,4.05-3.19,8.12-4.63,12.23
								c-0.72,2.06-1.41,4.12-2.03,6.22c-0.31,1.05-0.6,2.1-0.84,3.16c-0.23,1.06-0.45,2.15-0.41,3.24c0.02-1.09,0.29-2.15,0.57-3.2
								c0.29-1.05,0.63-2.08,0.98-3.1c0.71-2.05,1.5-4.08,2.31-6.09c1.55-3.81,3.2-7.58,4.91-11.31c0.79,1.08,1.53,2.2,2.2,3.35
								c1.75,2.97,3.18,6.12,4.33,9.38c2.3,6.51,3.63,13.35,4.51,20.21c-0.76-6.88-1.98-13.74-4.18-20.33
								c-1.1-3.29-2.49-6.49-4.21-9.52c-0.72-1.28-1.52-2.51-2.37-3.7c0-0.01,0.01-0.02,0.01-0.03l-0.05-0.02
								c-1.17-1.62-2.44-3.17-3.8-4.62c-0.04-0.04-0.08-0.08-0.12-0.12l0.24-0.07l0.66-0.2c0.44-0.13,0.88-0.26,1.32-0.38
								c0.88-0.24,1.78-0.45,2.68-0.63c1.8-0.35,3.63-0.56,5.47-0.58c1.83-0.02,3.68,0.17,5.47,0.61c1.79,0.44,3.52,1.16,5.08,2.17
								c-1.51-1.09-3.21-1.92-5-2.47C167.67,149.84,165.8,149.55,163.92,149.46z"/>
						</g>
					</g>
				</g>
				<g class="st5">
					<g>
						<g>
							<path class="st18" d="M76.07,127.68c-1.08-0.5-2.32-0.92-2.91-0.65c-1.75-1.55-3.59-3.03-5.49-4.38
								C54.9,113.6,57.58,96.53,57.58,96.09c0,0-0.29-0.33,0.8-1.27c0.41,0.39,0.82,0.8,1.22,1.22c0.56-0.64,0.87-1.6,1.02-2.75
								c0.01,0,0.02-0.01,0.03-0.02C60.89,100.13,63.07,115.01,76.07,127.68z"/>
						</g>
					</g>
				</g>
				<g class="st1">
					<g>
						<g>
							<path class="st18" d="M115.9,124.29c0,0-3.01-8.24-2.12-10.35c0.89-2.12,2.12,0.33,3.34,3.23c1.22,2.89,2.12,6.57,2.12,6.57
								S116.45,123.51,115.9,124.29z M153.91,109.36c-4.78-0.94-13.83-1.18-20.21,8.03c-9.05,13.06-16.62-20.78-19.73-21.67
								c-3.12-0.89,0.15,23.9-2.67,29.83c-1.88,3.95-3.55,14.65-4.16,22.13c0.01-0.01,0.02-0.02,0.02-0.02
								c0.25,1.74,0.54,3.58,0.91,5.44c-0.07-0.37,0.58-1.38,0.73-1.77c0.44-1.11,0.56-2.34,0.72-3.52c0.28-2.11,0.39-4.21,0.78-6.3
								c0.39-2.08,0.93-4.12,1.64-6.11c1.12-3.09,2.77-6.22,5.44-8.25c0.69-0.52,1.44-0.96,2.23-1.3
								c9.94-4.15,16.03,0.74,16.03,0.74s-3.27-6.53,0-9.5c2.89-2.62,9.26-7.81,17.99-7.32c0.68,0.04,1.37,0.11,2.07,0.22
								c0.47,0.07,0.96,0.16,1.44,0.27C157.02,110.21,155.8,109.73,153.91,109.36z"/>
						</g>
					</g>
				</g>
				<g class="st5">
					<g>
						<g>
							<path class="st18" d="M66.81,174.61c-2.38,1.18-9.22,3.47-13.54,3.45c-5.12-0.03-11.58,1.14-17.48-1.31
								c-3.98-1.65-6.87-0.73-8.54,0.77c0.3-1.14,0.8-2.25,1.26-3.44c2.13-0.66,4.94,0.34,10.62,1.44
								c11.47,2.23,26.16-3.23,26.16-3.23s0.04,0.01,0.1,0.04c-0.14,0.03-0.22,0.04-0.22,0.04
								C65.83,172.91,66.37,173.66,66.81,174.61z"/>
						</g>
					</g>
				</g>
				<g>
					<g>
						<g>
							<path class="st20" d="M97.55,164.15c-0.24,0.49-0.56,0.92-1.07,1.21c-2.17,1.26-4.93-1.08-7.1-1.14
								c-1.22-0.03-2.4,0.5-3.37,1.25c-2.33,1.81-4.24,4.63-4.69,7.58c-0.97,6.35,5.89,12.68,10.26,16.42c2.68,2.29,5.6,4.3,8.68,6
								c3.08,1.7,7.22,4.09,10.77,4.47c0,0,6.23,0.67,7.12,0c0.6-0.45,0.54-2.46,0.6-3.1c0.24-2.36,0.31-4.73,0.38-7.09
								c0.14-4.66,0.01-9.36-0.76-13.96c-0.69-4.13-3.71-7.15-6.54-10.04c-2.45-2.51-7.78-7.88-11.75-6
								C98.26,160.61,98.27,162.68,97.55,164.15z"/>
						</g>
					</g>
				</g>
				<g>
					<g>
						<g>
							<path class="st19" d="M116.2,210.89c0,0-12.25-2.45-8.46-12.69c2.26-6.12,8.84-8.83,14.89-9.5c8.1-0.9,14.6,1.98,20.91,6.9
								c2.97,2.32,5.96,4.76,9.41,6.34c2.54,1.17,7.05,0.58,4.58,3.9c-2.74,3.68-9,7.81-12.97,10.22
								c-6.03,3.66-11.86,4.24-18.62,3.06C121.44,218.34,115.56,216.58,116.2,210.89z"/>
						</g>
					</g>
				</g>
				<g>
					<g>
						<g>
							<path class="st17" d="M142.96,206.34c1.36,0.47,2.79,0.76,4.2,0.86c-3.03,0.04-6.06-0.84-8.59-2.5
								c-1.24-0.81-2.35-1.8-3.56-2.65c-1.25-0.89-2.57-1.41-3.98-2c-2.12,0.56-4.17,1.4-6.07,2.5c0.41,0.06,0.78,0.2,1.1,0.38
								c0.77,0.43,1.34,1.02,1.84,1.63c0.12,0.16,0.24,0.31,0.36,0.47l0.33,0.49l0.63,0.92c0.22,0.29,0.45,0.58,0.69,0.86
								c0.25,0.27,0.49,0.56,0.76,0.82c2.14,2.1,4.62,3.85,7.32,5.17c-3.67-1.55-7.19-3.68-9.72-6.76c-0.5-0.61-0.97-1.27-1.55-1.81
								c-1.13-1.05-2.4-1.15-3.85-0.84c-1.47,1.05-2.85,2.24-4.09,3.54c-0.63,0.66-1.23,1.36-1.8,2.07
								c-0.29,0.36-0.57,0.72-0.84,1.1l-0.16,0.23c-0.27-0.07-0.71-0.19-1.26-0.37l0.03-0.03l0.43-0.56
								c0.29-0.37,0.59-0.74,0.9-1.11c0.61-0.73,1.26-1.42,1.93-2.1c1.35-1.34,2.83-2.55,4.41-3.6c3.16-2.11,6.78-3.52,10.53-4.07
								c3.74-0.57,7.57-0.29,11.22,0.55c3.66,0.85,7.16,2.24,10.49,3.94c-3.37-1.61-6.91-2.89-10.55-3.63
								c-3.64-0.73-7.4-0.9-11.04-0.24c0.37,0.17,0.71,0.33,1.08,0.59c0.61,0.43,1.19,0.87,1.77,1.34c0.57,0.47,1.12,0.95,1.66,1.45
								c0.55,0.51,1.04,1,1.61,1.42C140.32,205.23,141.61,205.88,142.96,206.34z"/>
						</g>
					</g>
				</g>
			</g>
			<g>
				<g>
					<g>
						<path class="st22" d="M129.83,239.45v10.05c0,0.48-0.39,0.87-0.87,0.87h-2.17c-0.43,0-0.79,0.31-0.86,0.73l-8.49,52.95
							c-0.46,2.91-2.59,5.27-5.43,6.03c-4.91,1.3-12.94,3.07-20.58,3.07c-3.49,0-7.06-0.37-10.37-0.9h-0.01
							c-3.95-0.62-7.53-1.47-10.2-2.18c-2.85-0.76-4.97-3.12-5.44-6.03l-8.49-52.95c-0.07-0.42-0.43-0.73-0.86-0.73h-2.16
							c-0.49,0-0.87-0.39-0.87-0.87v-10.05c0-0.49,0.39-0.87,0.87-0.87h75.06C129.44,238.57,129.83,238.96,129.83,239.45z"/>
					</g>
				</g>
			</g>
			<g>
				<g>
					<g>
						<path class="st23" d="M126.79,250.37c-0.43,0-0.79,0.31-0.86,0.73l-8.49,52.95c-0.46,2.91-2.59,5.27-5.43,6.03
							c-4.91,1.3-12.94,3.07-20.58,3.07c-3.49,0-7.06-0.37-10.37-0.9c4.6,0.06,9.23-0.85,13.24-3.15
							c13.68-7.85,15.64-26.57,17.66-40.53c0.65-4.45,1.03-8.67-2.48-11.94c-2.31-2.16-5.39-3.41-8.38-4.3
							c-4-1.19-8.41-1.96-12.6-1.96H126.79z"/>
					</g>
				</g>
			</g>
		</g>
	</g>
</g>
</svg>
